<?xml version="1.0" encoding="UTF-8" standalone="no"?>
<!DOCTYPE svg PUBLIC "-//W3C//DTD SVG 1.1//EN"
 "http://www.w3.org/Graphics/SVG/1.1/DTD/svg11.dtd">
<!-- Generated by graphviz version 2.26.3 (20100126.1600)
 -->
<!-- Title: G Pages: 1 -->
<svg width="1428pt" height="1284pt"
 viewBox="0.00 0.00 1428.00 1284.00" xmlns="http://www.w3.org/2000/svg" xmlns:xlink="http://www.w3.org/1999/xlink">
<g id="graph1" class="graph" transform="scale(1 1) rotate(0) translate(4 1280)">
<title>G</title>
<polygon fill="white" stroke="white" points="-4,5 -4,-1280 1425,-1280 1425,5 -4,5"/>
<!-- &#45;100006 -->
<g id="node1" class="node"><title>&#45;100006</title>
<image xlink:href="./grid.-1.-6.svg" width="122px" height="97.6px" preserveAspectRatio="xMinYMin meet" x="1" y="-110.8"/>
<polygon fill="none" stroke="black" points="123,-123 1,-123 1,-1 123,-1 123,-123"/>
<text text-anchor="middle" x="62" y="-6.4" font-family="Times Roman,serif" font-size="14.00">[&#45;1,&#45;6]</text>
</g>
<!-- &#45;100005 -->
<g id="node2" class="node"><title>&#45;100005</title>
<image xlink:href="./grid.-1.-5.svg" width="122px" height="97.6px" preserveAspectRatio="xMinYMin meet" x="1" y="-254.8"/>
<polygon fill="none" stroke="black" points="123,-267 1,-267 1,-145 123,-145 123,-267"/>
<text text-anchor="middle" x="62" y="-150.4" font-family="Times Roman,serif" font-size="14.00">[&#45;1,&#45;5]</text>
</g>
<!-- &#45;100004 -->
<g id="node3" class="node"><title>&#45;100004</title>
<image xlink:href="./grid.-1.-4.svg" width="122px" height="97.6px" preserveAspectRatio="xMinYMin meet" x="1" y="-398.8"/>
<polygon fill="none" stroke="black" points="123,-411 1,-411 1,-289 123,-289 123,-411"/>
<text text-anchor="middle" x="62" y="-294.4" font-family="Times Roman,serif" font-size="14.00">[&#45;1,&#45;4]</text>
</g>
<!-- &#45;100003 -->
<g id="node4" class="node"><title>&#45;100003</title>
<image xlink:href="./grid.-1.-3.svg" width="122px" height="97.6px" preserveAspectRatio="xMinYMin meet" x="1" y="-542.8"/>
<polygon fill="none" stroke="black" points="123,-555 1,-555 1,-433 123,-433 123,-555"/>
<text text-anchor="middle" x="62" y="-438.4" font-family="Times Roman,serif" font-size="14.00">[&#45;1,&#45;3]</text>
</g>
<!-- &#45;100002 -->
<g id="node5" class="node"><title>&#45;100002</title>
<image xlink:href="./grid.-1.-2.svg" width="122px" height="97.6px" preserveAspectRatio="xMinYMin meet" x="1" y="-686.8"/>
<polygon fill="none" stroke="black" points="123,-699 1,-699 1,-577 123,-577 123,-699"/>
<text text-anchor="middle" x="62" y="-582.4" font-family="Times Roman,serif" font-size="14.00">[&#45;1,&#45;2]</text>
</g>
<!-- &#45;100001 -->
<g id="node6" class="node"><title>&#45;100001</title>
<image xlink:href="./grid.-1.-1.svg" width="122px" height="97.6px" preserveAspectRatio="xMinYMin meet" x="1" y="-830.8"/>
<polygon fill="none" stroke="black" points="123,-843 1,-843 1,-721 123,-721 123,-843"/>
<text text-anchor="middle" x="62" y="-726.4" font-family="Times Roman,serif" font-size="14.00">[&#45;1,&#45;1]</text>
</g>
<!-- &#45;100000 -->
<g id="node7" class="node"><title>&#45;100000</title>
<image xlink:href="./grid.-1.0.svg" width="122px" height="97.6px" preserveAspectRatio="xMinYMin meet" x="1" y="-974.8"/>
<polygon fill="none" stroke="black" points="123,-987 1,-987 1,-865 123,-865 123,-987"/>
<text text-anchor="middle" x="62" y="-870.4" font-family="Times Roman,serif" font-size="14.00">[&#45;1,0]</text>
</g>
<!-- &#45;99999 -->
<g id="node8" class="node"><title>&#45;99999</title>
<image xlink:href="./grid.-1.1.svg" width="122px" height="97.6px" preserveAspectRatio="xMinYMin meet" x="1" y="-1118.8"/>
<polygon fill="none" stroke="black" points="123,-1131 1,-1131 1,-1009 123,-1009 123,-1131"/>
<text text-anchor="middle" x="62" y="-1014.4" font-family="Times Roman,serif" font-size="14.00">[&#45;1,1]</text>
</g>
<!-- &#45;99998 -->
<g id="node9" class="node"><title>&#45;99998</title>
<image xlink:href="./grid.-1.2.svg" width="122px" height="97.6px" preserveAspectRatio="xMinYMin meet" x="1" y="-1262.8"/>
<polygon fill="none" stroke="black" points="123,-1275 1,-1275 1,-1153 123,-1153 123,-1275"/>
<text text-anchor="middle" x="62" y="-1158.4" font-family="Times Roman,serif" font-size="14.00">[&#45;1,2]</text>
</g>
<!-- &#45;6 -->
<g id="node10" class="node"><title>&#45;6</title>
<image xlink:href="./grid.0.-6.svg" width="122px" height="97.6px" preserveAspectRatio="xMinYMin meet" x="145" y="-110.8"/>
<polygon fill="none" stroke="black" points="267,-123 145,-123 145,-1 267,-1 267,-123"/>
<text text-anchor="middle" x="206" y="-6.4" font-family="Times Roman,serif" font-size="14.00">[0,&#45;6]</text>
</g>
<!-- &#45;5 -->
<g id="node11" class="node"><title>&#45;5</title>
<image xlink:href="./grid.0.-5.svg" width="122px" height="97.6px" preserveAspectRatio="xMinYMin meet" x="145" y="-254.8"/>
<polygon fill="none" stroke="black" points="267,-267 145,-267 145,-145 267,-145 267,-267"/>
<text text-anchor="middle" x="206" y="-150.4" font-family="Times Roman,serif" font-size="14.00">[0,&#45;5]</text>
</g>
<!-- &#45;4 -->
<g id="node12" class="node"><title>&#45;4</title>
<image xlink:href="./grid.0.-4.svg" width="122px" height="97.6px" preserveAspectRatio="xMinYMin meet" x="145" y="-398.8"/>
<polygon fill="none" stroke="black" points="267,-411 145,-411 145,-289 267,-289 267,-411"/>
<text text-anchor="middle" x="206" y="-294.4" font-family="Times Roman,serif" font-size="14.00">[0,&#45;4]</text>
</g>
<!-- &#45;3 -->
<g id="node13" class="node"><title>&#45;3</title>
<image xlink:href="./grid.0.-3.svg" width="122px" height="97.6px" preserveAspectRatio="xMinYMin meet" x="145" y="-542.8"/>
<polygon fill="none" stroke="black" points="267,-555 145,-555 145,-433 267,-433 267,-555"/>
<text text-anchor="middle" x="206" y="-438.4" font-family="Times Roman,serif" font-size="14.00">[0,&#45;3]</text>
</g>
<!-- &#45;2 -->
<g id="node14" class="node"><title>&#45;2</title>
<image xlink:href="./grid.0.-2.svg" width="122px" height="97.6px" preserveAspectRatio="xMinYMin meet" x="145" y="-686.8"/>
<polygon fill="none" stroke="black" points="267,-699 145,-699 145,-577 267,-577 267,-699"/>
<text text-anchor="middle" x="206" y="-582.4" font-family="Times Roman,serif" font-size="14.00">[0,&#45;2]</text>
</g>
<!-- &#45;1 -->
<g id="node15" class="node"><title>&#45;1</title>
<image xlink:href="./grid.0.-1.svg" width="122px" height="97.6px" preserveAspectRatio="xMinYMin meet" x="145" y="-830.8"/>
<polygon fill="none" stroke="black" points="267,-843 145,-843 145,-721 267,-721 267,-843"/>
<text text-anchor="middle" x="206" y="-726.4" font-family="Times Roman,serif" font-size="14.00">[0,&#45;1]</text>
</g>
<!-- 0 -->
<g id="node16" class="node"><title>0</title>
<image xlink:href="./grid.0.0.svg" width="122px" height="97.6px" preserveAspectRatio="xMinYMin meet" x="145" y="-974.8"/>
<polygon fill="none" stroke="black" points="267,-987 145,-987 145,-865 267,-865 267,-987"/>
<text text-anchor="middle" x="206" y="-870.4" font-family="Times Roman,serif" font-size="14.00">[0,0]</text>
</g>
<!-- 1 -->
<g id="node17" class="node"><title>1</title>
<image xlink:href="./grid.0.1.svg" width="122px" height="97.6px" preserveAspectRatio="xMinYMin meet" x="145" y="-1118.8"/>
<polygon fill="none" stroke="black" points="267,-1131 145,-1131 145,-1009 267,-1009 267,-1131"/>
<text text-anchor="middle" x="206" y="-1014.4" font-family="Times Roman,serif" font-size="14.00">[0,1]</text>
</g>
<!-- 2 -->
<g id="node18" class="node"><title>2</title>
<image xlink:href="./grid.0.2.svg" width="122px" height="97.6px" preserveAspectRatio="xMinYMin meet" x="145" y="-1262.8"/>
<polygon fill="none" stroke="black" points="267,-1275 145,-1275 145,-1153 267,-1153 267,-1275"/>
<text text-anchor="middle" x="206" y="-1158.4" font-family="Times Roman,serif" font-size="14.00">[0,2]</text>
</g>
<!-- 99994 -->
<g id="node19" class="node"><title>99994</title>
<image xlink:href="./grid.1.-6.svg" width="122px" height="97.6px" preserveAspectRatio="xMinYMin meet" x="289" y="-110.8"/>
<polygon fill="none" stroke="black" points="411,-123 289,-123 289,-1 411,-1 411,-123"/>
<text text-anchor="middle" x="350" y="-6.4" font-family="Times Roman,serif" font-size="14.00">[1,&#45;6]</text>
</g>
<!-- 99995 -->
<g id="node20" class="node"><title>99995</title>
<image xlink:href="./grid.1.-5.svg" width="122px" height="97.6px" preserveAspectRatio="xMinYMin meet" x="289" y="-254.8"/>
<polygon fill="none" stroke="black" points="411,-267 289,-267 289,-145 411,-145 411,-267"/>
<text text-anchor="middle" x="350" y="-150.4" font-family="Times Roman,serif" font-size="14.00">[1,&#45;5]</text>
</g>
<!-- 99996 -->
<g id="node21" class="node"><title>99996</title>
<image xlink:href="./grid.1.-4.svg" width="122px" height="97.6px" preserveAspectRatio="xMinYMin meet" x="289" y="-398.8"/>
<polygon fill="none" stroke="black" points="411,-411 289,-411 289,-289 411,-289 411,-411"/>
<text text-anchor="middle" x="350" y="-294.4" font-family="Times Roman,serif" font-size="14.00">[1,&#45;4]</text>
</g>
<!-- 99997 -->
<g id="node22" class="node"><title>99997</title>
<image xlink:href="./grid.1.-3.svg" width="122px" height="97.6px" preserveAspectRatio="xMinYMin meet" x="289" y="-542.8"/>
<polygon fill="none" stroke="black" points="411,-555 289,-555 289,-433 411,-433 411,-555"/>
<text text-anchor="middle" x="350" y="-438.4" font-family="Times Roman,serif" font-size="14.00">[1,&#45;3]</text>
</g>
<!-- 99998 -->
<g id="node23" class="node"><title>99998</title>
<image xlink:href="./grid.1.-2.svg" width="122px" height="97.6px" preserveAspectRatio="xMinYMin meet" x="289" y="-686.8"/>
<polygon fill="none" stroke="black" points="411,-699 289,-699 289,-577 411,-577 411,-699"/>
<text text-anchor="middle" x="350" y="-582.4" font-family="Times Roman,serif" font-size="14.00">[1,&#45;2]</text>
</g>
<!-- 99999 -->
<g id="node24" class="node"><title>99999</title>
<image xlink:href="./grid.1.-1.svg" width="122px" height="97.6px" preserveAspectRatio="xMinYMin meet" x="289" y="-830.8"/>
<polygon fill="none" stroke="black" points="411,-843 289,-843 289,-721 411,-721 411,-843"/>
<text text-anchor="middle" x="350" y="-726.4" font-family="Times Roman,serif" font-size="14.00">[1,&#45;1]</text>
</g>
<!-- 100000 -->
<g id="node25" class="node"><title>100000</title>
<image xlink:href="./grid.1.0.svg" width="122px" height="97.6px" preserveAspectRatio="xMinYMin meet" x="289" y="-974.8"/>
<polygon fill="none" stroke="black" points="411,-987 289,-987 289,-865 411,-865 411,-987"/>
<text text-anchor="middle" x="350" y="-870.4" font-family="Times Roman,serif" font-size="14.00">[1,0]</text>
</g>
<!-- 100001 -->
<g id="node26" class="node"><title>100001</title>
<image xlink:href="./grid.1.1.svg" width="122px" height="97.6px" preserveAspectRatio="xMinYMin meet" x="289" y="-1118.8"/>
<polygon fill="none" stroke="black" points="411,-1131 289,-1131 289,-1009 411,-1009 411,-1131"/>
<text text-anchor="middle" x="350" y="-1014.4" font-family="Times Roman,serif" font-size="14.00">[1,1]</text>
</g>
<!-- 100002 -->
<g id="node27" class="node"><title>100002</title>
<image xlink:href="./grid.1.2.svg" width="122px" height="97.6px" preserveAspectRatio="xMinYMin meet" x="289" y="-1262.8"/>
<polygon fill="none" stroke="black" points="411,-1275 289,-1275 289,-1153 411,-1153 411,-1275"/>
<text text-anchor="middle" x="350" y="-1158.4" font-family="Times Roman,serif" font-size="14.00">[1,2]</text>
</g>
<!-- 199994 -->
<g id="node28" class="node"><title>199994</title>
<image xlink:href="./grid.2.-6.svg" width="122px" height="97.6px" preserveAspectRatio="xMinYMin meet" x="433" y="-110.8"/>
<polygon fill="none" stroke="black" points="555,-123 433,-123 433,-1 555,-1 555,-123"/>
<text text-anchor="middle" x="494" y="-6.4" font-family="Times Roman,serif" font-size="14.00">[2,&#45;6]</text>
</g>
<!-- 199995 -->
<g id="node29" class="node"><title>199995</title>
<image xlink:href="./grid.2.-5.svg" width="122px" height="97.6px" preserveAspectRatio="xMinYMin meet" x="433" y="-254.8"/>
<polygon fill="none" stroke="black" points="555,-267 433,-267 433,-145 555,-145 555,-267"/>
<text text-anchor="middle" x="494" y="-150.4" font-family="Times Roman,serif" font-size="14.00">[2,&#45;5]</text>
</g>
<!-- 199996 -->
<g id="node30" class="node"><title>199996</title>
<image xlink:href="./grid.2.-4.svg" width="122px" height="97.6px" preserveAspectRatio="xMinYMin meet" x="433" y="-398.8"/>
<polygon fill="none" stroke="black" points="555,-411 433,-411 433,-289 555,-289 555,-411"/>
<text text-anchor="middle" x="494" y="-294.4" font-family="Times Roman,serif" font-size="14.00">[2,&#45;4]</text>
</g>
<!-- 199997 -->
<g id="node31" class="node"><title>199997</title>
<image xlink:href="./grid.2.-3.svg" width="122px" height="97.6px" preserveAspectRatio="xMinYMin meet" x="433" y="-542.8"/>
<polygon fill="none" stroke="black" points="555,-555 433,-555 433,-433 555,-433 555,-555"/>
<text text-anchor="middle" x="494" y="-438.4" font-family="Times Roman,serif" font-size="14.00">[2,&#45;3]</text>
</g>
<!-- 199998 -->
<g id="node32" class="node"><title>199998</title>
<image xlink:href="./grid.2.-2.svg" width="122px" height="97.6px" preserveAspectRatio="xMinYMin meet" x="433" y="-686.8"/>
<polygon fill="none" stroke="black" points="555,-699 433,-699 433,-577 555,-577 555,-699"/>
<text text-anchor="middle" x="494" y="-582.4" font-family="Times Roman,serif" font-size="14.00">[2,&#45;2]</text>
</g>
<!-- 199999 -->
<g id="node33" class="node"><title>199999</title>
<image xlink:href="./grid.2.-1.svg" width="122px" height="97.6px" preserveAspectRatio="xMinYMin meet" x="433" y="-830.8"/>
<polygon fill="none" stroke="black" points="555,-843 433,-843 433,-721 555,-721 555,-843"/>
<text text-anchor="middle" x="494" y="-726.4" font-family="Times Roman,serif" font-size="14.00">[2,&#45;1]</text>
</g>
<!-- 200000 -->
<g id="node34" class="node"><title>200000</title>
<image xlink:href="./grid.2.0.svg" width="122px" height="97.6px" preserveAspectRatio="xMinYMin meet" x="433" y="-974.8"/>
<polygon fill="none" stroke="black" points="555,-987 433,-987 433,-865 555,-865 555,-987"/>
<text text-anchor="middle" x="494" y="-870.4" font-family="Times Roman,serif" font-size="14.00">[2,0]</text>
</g>
<!-- 200001 -->
<g id="node35" class="node"><title>200001</title>
<image xlink:href="./grid.2.1.svg" width="122px" height="97.6px" preserveAspectRatio="xMinYMin meet" x="433" y="-1118.8"/>
<polygon fill="none" stroke="black" points="555,-1131 433,-1131 433,-1009 555,-1009 555,-1131"/>
<text text-anchor="middle" x="494" y="-1014.4" font-family="Times Roman,serif" font-size="14.00">[2,1]</text>
</g>
<!-- 200002 -->
<g id="node36" class="node"><title>200002</title>
<image xlink:href="./grid.2.2.svg" width="122px" height="97.6px" preserveAspectRatio="xMinYMin meet" x="433" y="-1262.8"/>
<polygon fill="none" stroke="black" points="555,-1275 433,-1275 433,-1153 555,-1153 555,-1275"/>
<text text-anchor="middle" x="494" y="-1158.4" font-family="Times Roman,serif" font-size="14.00">[2,2]</text>
</g>
<!-- 299994 -->
<g id="node37" class="node"><title>299994</title>
<image xlink:href="./grid.3.-6.svg" width="122px" height="97.6px" preserveAspectRatio="xMinYMin meet" x="577" y="-110.8"/>
<polygon fill="none" stroke="black" points="699,-123 577,-123 577,-1 699,-1 699,-123"/>
<text text-anchor="middle" x="638" y="-6.4" font-family="Times Roman,serif" font-size="14.00">[3,&#45;6]</text>
</g>
<!-- 299995 -->
<g id="node38" class="node"><title>299995</title>
<image xlink:href="./grid.3.-5.svg" width="122px" height="97.6px" preserveAspectRatio="xMinYMin meet" x="577" y="-254.8"/>
<polygon fill="none" stroke="black" points="699,-267 577,-267 577,-145 699,-145 699,-267"/>
<text text-anchor="middle" x="638" y="-150.4" font-family="Times Roman,serif" font-size="14.00">[3,&#45;5]</text>
</g>
<!-- 299996 -->
<g id="node39" class="node"><title>299996</title>
<image xlink:href="./grid.3.-4.svg" width="122px" height="97.6px" preserveAspectRatio="xMinYMin meet" x="577" y="-398.8"/>
<polygon fill="none" stroke="black" points="699,-411 577,-411 577,-289 699,-289 699,-411"/>
<text text-anchor="middle" x="638" y="-294.4" font-family="Times Roman,serif" font-size="14.00">[3,&#45;4]</text>
</g>
<!-- 299997 -->
<g id="node40" class="node"><title>299997</title>
<image xlink:href="./grid.3.-3.svg" width="122px" height="97.6px" preserveAspectRatio="xMinYMin meet" x="577" y="-542.8"/>
<polygon fill="none" stroke="black" points="699,-555 577,-555 577,-433 699,-433 699,-555"/>
<text text-anchor="middle" x="638" y="-438.4" font-family="Times Roman,serif" font-size="14.00">[3,&#45;3]</text>
</g>
<!-- 299998 -->
<g id="node41" class="node"><title>299998</title>
<image xlink:href="./grid.3.-2.svg" width="122px" height="97.6px" preserveAspectRatio="xMinYMin meet" x="577" y="-686.8"/>
<polygon fill="none" stroke="black" points="699,-699 577,-699 577,-577 699,-577 699,-699"/>
<text text-anchor="middle" x="638" y="-582.4" font-family="Times Roman,serif" font-size="14.00">[3,&#45;2]</text>
</g>
<!-- 299999 -->
<g id="node42" class="node"><title>299999</title>
<image xlink:href="./grid.3.-1.svg" width="122px" height="97.6px" preserveAspectRatio="xMinYMin meet" x="577" y="-830.8"/>
<polygon fill="none" stroke="black" points="699,-843 577,-843 577,-721 699,-721 699,-843"/>
<text text-anchor="middle" x="638" y="-726.4" font-family="Times Roman,serif" font-size="14.00">[3,&#45;1]</text>
</g>
<!-- 300000 -->
<g id="node43" class="node"><title>300000</title>
<image xlink:href="./grid.3.0.svg" width="122px" height="97.6px" preserveAspectRatio="xMinYMin meet" x="577" y="-974.8"/>
<polygon fill="none" stroke="black" points="699,-987 577,-987 577,-865 699,-865 699,-987"/>
<text text-anchor="middle" x="638" y="-870.4" font-family="Times Roman,serif" font-size="14.00">[3,0]</text>
</g>
<!-- 300001 -->
<g id="node44" class="node"><title>300001</title>
<image xlink:href="./grid.3.1.svg" width="122px" height="97.6px" preserveAspectRatio="xMinYMin meet" x="577" y="-1118.8"/>
<polygon fill="none" stroke="black" points="699,-1131 577,-1131 577,-1009 699,-1009 699,-1131"/>
<text text-anchor="middle" x="638" y="-1014.4" font-family="Times Roman,serif" font-size="14.00">[3,1]</text>
</g>
<!-- 300002 -->
<g id="node45" class="node"><title>300002</title>
<image xlink:href="./grid.3.2.svg" width="122px" height="97.6px" preserveAspectRatio="xMinYMin meet" x="577" y="-1262.8"/>
<polygon fill="none" stroke="black" points="699,-1275 577,-1275 577,-1153 699,-1153 699,-1275"/>
<text text-anchor="middle" x="638" y="-1158.4" font-family="Times Roman,serif" font-size="14.00">[3,2]</text>
</g>
<!-- 399994 -->
<g id="node46" class="node"><title>399994</title>
<image xlink:href="./grid.4.-6.svg" width="122px" height="97.6px" preserveAspectRatio="xMinYMin meet" x="721" y="-110.8"/>
<polygon fill="none" stroke="black" points="843,-123 721,-123 721,-1 843,-1 843,-123"/>
<text text-anchor="middle" x="782" y="-6.4" font-family="Times Roman,serif" font-size="14.00">[4,&#45;6]</text>
</g>
<!-- 399995 -->
<g id="node47" class="node"><title>399995</title>
<image xlink:href="./grid.4.-5.svg" width="122px" height="97.6px" preserveAspectRatio="xMinYMin meet" x="721" y="-254.8"/>
<polygon fill="none" stroke="black" points="843,-267 721,-267 721,-145 843,-145 843,-267"/>
<text text-anchor="middle" x="782" y="-150.4" font-family="Times Roman,serif" font-size="14.00">[4,&#45;5]</text>
</g>
<!-- 399996 -->
<g id="node48" class="node"><title>399996</title>
<image xlink:href="./grid.4.-4.svg" width="122px" height="97.6px" preserveAspectRatio="xMinYMin meet" x="721" y="-398.8"/>
<polygon fill="none" stroke="black" points="843,-411 721,-411 721,-289 843,-289 843,-411"/>
<text text-anchor="middle" x="782" y="-294.4" font-family="Times Roman,serif" font-size="14.00">[4,&#45;4]</text>
</g>
<!-- 399997 -->
<g id="node49" class="node"><title>399997</title>
<image xlink:href="./grid.4.-3.svg" width="122px" height="97.6px" preserveAspectRatio="xMinYMin meet" x="721" y="-542.8"/>
<polygon fill="none" stroke="black" points="843,-555 721,-555 721,-433 843,-433 843,-555"/>
<text text-anchor="middle" x="782" y="-438.4" font-family="Times Roman,serif" font-size="14.00">[4,&#45;3]</text>
</g>
<!-- 399998 -->
<g id="node50" class="node"><title>399998</title>
<image xlink:href="./grid.4.-2.svg" width="122px" height="97.6px" preserveAspectRatio="xMinYMin meet" x="721" y="-686.8"/>
<polygon fill="none" stroke="black" points="843,-699 721,-699 721,-577 843,-577 843,-699"/>
<text text-anchor="middle" x="782" y="-582.4" font-family="Times Roman,serif" font-size="14.00">[4,&#45;2]</text>
</g>
<!-- 399999 -->
<g id="node51" class="node"><title>399999</title>
<image xlink:href="./grid.4.-1.svg" width="122px" height="97.6px" preserveAspectRatio="xMinYMin meet" x="721" y="-830.8"/>
<polygon fill="none" stroke="black" points="843,-843 721,-843 721,-721 843,-721 843,-843"/>
<text text-anchor="middle" x="782" y="-726.4" font-family="Times Roman,serif" font-size="14.00">[4,&#45;1]</text>
</g>
<!-- 400000 -->
<g id="node52" class="node"><title>400000</title>
<image xlink:href="./grid.4.0.svg" width="122px" height="97.6px" preserveAspectRatio="xMinYMin meet" x="721" y="-974.8"/>
<polygon fill="none" stroke="black" points="843,-987 721,-987 721,-865 843,-865 843,-987"/>
<text text-anchor="middle" x="782" y="-870.4" font-family="Times Roman,serif" font-size="14.00">[4,0]</text>
</g>
<!-- 400001 -->
<g id="node53" class="node"><title>400001</title>
<image xlink:href="./grid.4.1.svg" width="122px" height="97.6px" preserveAspectRatio="xMinYMin meet" x="721" y="-1118.8"/>
<polygon fill="none" stroke="black" points="843,-1131 721,-1131 721,-1009 843,-1009 843,-1131"/>
<text text-anchor="middle" x="782" y="-1014.4" font-family="Times Roman,serif" font-size="14.00">[4,1]</text>
</g>
<!-- 400002 -->
<g id="node54" class="node"><title>400002</title>
<image xlink:href="./grid.4.2.svg" width="122px" height="97.6px" preserveAspectRatio="xMinYMin meet" x="721" y="-1262.8"/>
<polygon fill="none" stroke="black" points="843,-1275 721,-1275 721,-1153 843,-1153 843,-1275"/>
<text text-anchor="middle" x="782" y="-1158.4" font-family="Times Roman,serif" font-size="14.00">[4,2]</text>
</g>
<!-- 499994 -->
<g id="node55" class="node"><title>499994</title>
<image xlink:href="./grid.5.-6.svg" width="122px" height="97.6px" preserveAspectRatio="xMinYMin meet" x="865" y="-110.8"/>
<polygon fill="none" stroke="black" points="987,-123 865,-123 865,-1 987,-1 987,-123"/>
<text text-anchor="middle" x="926" y="-6.4" font-family="Times Roman,serif" font-size="14.00">[5,&#45;6]</text>
</g>
<!-- 499995 -->
<g id="node56" class="node"><title>499995</title>
<image xlink:href="./grid.5.-5.svg" width="122px" height="97.6px" preserveAspectRatio="xMinYMin meet" x="865" y="-254.8"/>
<polygon fill="none" stroke="black" points="987,-267 865,-267 865,-145 987,-145 987,-267"/>
<text text-anchor="middle" x="926" y="-150.4" font-family="Times Roman,serif" font-size="14.00">[5,&#45;5]</text>
</g>
<!-- 499996 -->
<g id="node57" class="node"><title>499996</title>
<image xlink:href="./grid.5.-4.svg" width="122px" height="97.6px" preserveAspectRatio="xMinYMin meet" x="865" y="-398.8"/>
<polygon fill="none" stroke="black" points="987,-411 865,-411 865,-289 987,-289 987,-411"/>
<text text-anchor="middle" x="926" y="-294.4" font-family="Times Roman,serif" font-size="14.00">[5,&#45;4]</text>
</g>
<!-- 499997 -->
<g id="node58" class="node"><title>499997</title>
<image xlink:href="./grid.5.-3.svg" width="122px" height="97.6px" preserveAspectRatio="xMinYMin meet" x="865" y="-542.8"/>
<polygon fill="none" stroke="black" points="987,-555 865,-555 865,-433 987,-433 987,-555"/>
<text text-anchor="middle" x="926" y="-438.4" font-family="Times Roman,serif" font-size="14.00">[5,&#45;3]</text>
</g>
<!-- 499998 -->
<g id="node59" class="node"><title>499998</title>
<image xlink:href="./grid.5.-2.svg" width="122px" height="97.6px" preserveAspectRatio="xMinYMin meet" x="865" y="-686.8"/>
<polygon fill="none" stroke="black" points="987,-699 865,-699 865,-577 987,-577 987,-699"/>
<text text-anchor="middle" x="926" y="-582.4" font-family="Times Roman,serif" font-size="14.00">[5,&#45;2]</text>
</g>
<!-- 499999 -->
<g id="node60" class="node"><title>499999</title>
<image xlink:href="./grid.5.-1.svg" width="122px" height="97.6px" preserveAspectRatio="xMinYMin meet" x="865" y="-830.8"/>
<polygon fill="none" stroke="black" points="987,-843 865,-843 865,-721 987,-721 987,-843"/>
<text text-anchor="middle" x="926" y="-726.4" font-family="Times Roman,serif" font-size="14.00">[5,&#45;1]</text>
</g>
<!-- 500000 -->
<g id="node61" class="node"><title>500000</title>
<image xlink:href="./grid.5.0.svg" width="122px" height="97.6px" preserveAspectRatio="xMinYMin meet" x="865" y="-974.8"/>
<polygon fill="none" stroke="black" points="987,-987 865,-987 865,-865 987,-865 987,-987"/>
<text text-anchor="middle" x="926" y="-870.4" font-family="Times Roman,serif" font-size="14.00">[5,0]</text>
</g>
<!-- 500001 -->
<g id="node62" class="node"><title>500001</title>
<image xlink:href="./grid.5.1.svg" width="122px" height="97.6px" preserveAspectRatio="xMinYMin meet" x="865" y="-1118.8"/>
<polygon fill="none" stroke="black" points="987,-1131 865,-1131 865,-1009 987,-1009 987,-1131"/>
<text text-anchor="middle" x="926" y="-1014.4" font-family="Times Roman,serif" font-size="14.00">[5,1]</text>
</g>
<!-- 500002 -->
<g id="node63" class="node"><title>500002</title>
<image xlink:href="./grid.5.2.svg" width="122px" height="97.6px" preserveAspectRatio="xMinYMin meet" x="865" y="-1262.8"/>
<polygon fill="none" stroke="black" points="987,-1275 865,-1275 865,-1153 987,-1153 987,-1275"/>
<text text-anchor="middle" x="926" y="-1158.4" font-family="Times Roman,serif" font-size="14.00">[5,2]</text>
</g>
<!-- 599994 -->
<g id="node64" class="node"><title>599994</title>
<image xlink:href="./grid.6.-6.svg" width="122px" height="97.6px" preserveAspectRatio="xMinYMin meet" x="1009" y="-110.8"/>
<polygon fill="none" stroke="black" points="1131,-123 1009,-123 1009,-1 1131,-1 1131,-123"/>
<text text-anchor="middle" x="1070" y="-6.4" font-family="Times Roman,serif" font-size="14.00">[6,&#45;6]</text>
</g>
<!-- 599995 -->
<g id="node65" class="node"><title>599995</title>
<image xlink:href="./grid.6.-5.svg" width="122px" height="97.6px" preserveAspectRatio="xMinYMin meet" x="1009" y="-254.8"/>
<polygon fill="none" stroke="black" points="1131,-267 1009,-267 1009,-145 1131,-145 1131,-267"/>
<text text-anchor="middle" x="1070" y="-150.4" font-family="Times Roman,serif" font-size="14.00">[6,&#45;5]</text>
</g>
<!-- 599996 -->
<g id="node66" class="node"><title>599996</title>
<image xlink:href="./grid.6.-4.svg" width="122px" height="97.6px" preserveAspectRatio="xMinYMin meet" x="1009" y="-398.8"/>
<polygon fill="none" stroke="black" points="1131,-411 1009,-411 1009,-289 1131,-289 1131,-411"/>
<text text-anchor="middle" x="1070" y="-294.4" font-family="Times Roman,serif" font-size="14.00">[6,&#45;4]</text>
</g>
<!-- 599997 -->
<g id="node67" class="node"><title>599997</title>
<image xlink:href="./grid.6.-3.svg" width="122px" height="97.6px" preserveAspectRatio="xMinYMin meet" x="1009" y="-542.8"/>
<polygon fill="none" stroke="black" points="1131,-555 1009,-555 1009,-433 1131,-433 1131,-555"/>
<text text-anchor="middle" x="1070" y="-438.4" font-family="Times Roman,serif" font-size="14.00">[6,&#45;3]</text>
</g>
<!-- 599998 -->
<g id="node68" class="node"><title>599998</title>
<image xlink:href="./grid.6.-2.svg" width="122px" height="97.6px" preserveAspectRatio="xMinYMin meet" x="1009" y="-686.8"/>
<polygon fill="none" stroke="black" points="1131,-699 1009,-699 1009,-577 1131,-577 1131,-699"/>
<text text-anchor="middle" x="1070" y="-582.4" font-family="Times Roman,serif" font-size="14.00">[6,&#45;2]</text>
</g>
<!-- 599999 -->
<g id="node69" class="node"><title>599999</title>
<image xlink:href="./grid.6.-1.svg" width="122px" height="97.6px" preserveAspectRatio="xMinYMin meet" x="1009" y="-830.8"/>
<polygon fill="none" stroke="black" points="1131,-843 1009,-843 1009,-721 1131,-721 1131,-843"/>
<text text-anchor="middle" x="1070" y="-726.4" font-family="Times Roman,serif" font-size="14.00">[6,&#45;1]</text>
</g>
<!-- 600000 -->
<g id="node70" class="node"><title>600000</title>
<image xlink:href="./grid.6.0.svg" width="122px" height="97.6px" preserveAspectRatio="xMinYMin meet" x="1009" y="-974.8"/>
<polygon fill="none" stroke="black" points="1131,-987 1009,-987 1009,-865 1131,-865 1131,-987"/>
<text text-anchor="middle" x="1070" y="-870.4" font-family="Times Roman,serif" font-size="14.00">[6,0]</text>
</g>
<!-- 600001 -->
<g id="node71" class="node"><title>600001</title>
<image xlink:href="./grid.6.1.svg" width="122px" height="97.6px" preserveAspectRatio="xMinYMin meet" x="1009" y="-1118.8"/>
<polygon fill="none" stroke="black" points="1131,-1131 1009,-1131 1009,-1009 1131,-1009 1131,-1131"/>
<text text-anchor="middle" x="1070" y="-1014.4" font-family="Times Roman,serif" font-size="14.00">[6,1]</text>
</g>
<!-- 600002 -->
<g id="node72" class="node"><title>600002</title>
<image xlink:href="./grid.6.2.svg" width="122px" height="97.6px" preserveAspectRatio="xMinYMin meet" x="1009" y="-1262.8"/>
<polygon fill="none" stroke="black" points="1131,-1275 1009,-1275 1009,-1153 1131,-1153 1131,-1275"/>
<text text-anchor="middle" x="1070" y="-1158.4" font-family="Times Roman,serif" font-size="14.00">[6,2]</text>
</g>
<!-- 699995 -->
<g id="node73" class="node"><title>699995</title>
<image xlink:href="./grid.7.-5.svg" width="122px" height="97.6px" preserveAspectRatio="xMinYMin meet" x="1153" y="-254.8"/>
<polygon fill="none" stroke="black" points="1275,-267 1153,-267 1153,-145 1275,-145 1275,-267"/>
<text text-anchor="middle" x="1214" y="-150.4" font-family="Times Roman,serif" font-size="14.00">[7,&#45;5]</text>
</g>
<!-- 699996 -->
<g id="node74" class="node"><title>699996</title>
<image xlink:href="./grid.7.-4.svg" width="122px" height="97.6px" preserveAspectRatio="xMinYMin meet" x="1153" y="-398.8"/>
<polygon fill="none" stroke="black" points="1275,-411 1153,-411 1153,-289 1275,-289 1275,-411"/>
<text text-anchor="middle" x="1214" y="-294.4" font-family="Times Roman,serif" font-size="14.00">[7,&#45;4]</text>
</g>
<!-- 699997 -->
<g id="node75" class="node"><title>699997</title>
<image xlink:href="./grid.7.-3.svg" width="122px" height="97.6px" preserveAspectRatio="xMinYMin meet" x="1153" y="-542.8"/>
<polygon fill="none" stroke="black" points="1275,-555 1153,-555 1153,-433 1275,-433 1275,-555"/>
<text text-anchor="middle" x="1214" y="-438.4" font-family="Times Roman,serif" font-size="14.00">[7,&#45;3]</text>
</g>
<!-- 699998 -->
<g id="node76" class="node"><title>699998</title>
<image xlink:href="./grid.7.-2.svg" width="122px" height="97.6px" preserveAspectRatio="xMinYMin meet" x="1153" y="-686.8"/>
<polygon fill="none" stroke="black" points="1275,-699 1153,-699 1153,-577 1275,-577 1275,-699"/>
<text text-anchor="middle" x="1214" y="-582.4" font-family="Times Roman,serif" font-size="14.00">[7,&#45;2]</text>
</g>
<!-- 699999 -->
<g id="node77" class="node"><title>699999</title>
<image xlink:href="./grid.7.-1.svg" width="122px" height="97.6px" preserveAspectRatio="xMinYMin meet" x="1153" y="-830.8"/>
<polygon fill="none" stroke="black" points="1275,-843 1153,-843 1153,-721 1275,-721 1275,-843"/>
<text text-anchor="middle" x="1214" y="-726.4" font-family="Times Roman,serif" font-size="14.00">[7,&#45;1]</text>
</g>
<!-- 700000 -->
<g id="node78" class="node"><title>700000</title>
<image xlink:href="./grid.7.0.svg" width="122px" height="97.6px" preserveAspectRatio="xMinYMin meet" x="1153" y="-974.8"/>
<polygon fill="none" stroke="black" points="1275,-987 1153,-987 1153,-865 1275,-865 1275,-987"/>
<text text-anchor="middle" x="1214" y="-870.4" font-family="Times Roman,serif" font-size="14.00">[7,0]</text>
</g>
<!-- 700001 -->
<g id="node79" class="node"><title>700001</title>
<image xlink:href="./grid.7.1.svg" width="122px" height="97.6px" preserveAspectRatio="xMinYMin meet" x="1153" y="-1118.8"/>
<polygon fill="none" stroke="black" points="1275,-1131 1153,-1131 1153,-1009 1275,-1009 1275,-1131"/>
<text text-anchor="middle" x="1214" y="-1014.4" font-family="Times Roman,serif" font-size="14.00">[7,1]</text>
</g>
<!-- 700002 -->
<g id="node80" class="node"><title>700002</title>
<image xlink:href="./grid.7.2.svg" width="122px" height="97.6px" preserveAspectRatio="xMinYMin meet" x="1153" y="-1262.8"/>
<polygon fill="none" stroke="black" points="1275,-1275 1153,-1275 1153,-1153 1275,-1153 1275,-1275"/>
<text text-anchor="middle" x="1214" y="-1158.4" font-family="Times Roman,serif" font-size="14.00">[7,2]</text>
</g>
<!-- 799995 -->
<g id="node81" class="node"><title>799995</title>
<image xlink:href="./grid.8.-5.svg" width="122px" height="97.6px" preserveAspectRatio="xMinYMin meet" x="1297" y="-254.8"/>
<polygon fill="none" stroke="black" points="1419,-267 1297,-267 1297,-145 1419,-145 1419,-267"/>
<text text-anchor="middle" x="1358" y="-150.4" font-family="Times Roman,serif" font-size="14.00">[8,&#45;5]</text>
</g>
<!-- 799996 -->
<g id="node82" class="node"><title>799996</title>
<image xlink:href="./grid.8.-4.svg" width="122px" height="97.6px" preserveAspectRatio="xMinYMin meet" x="1297" y="-398.8"/>
<polygon fill="none" stroke="black" points="1419,-411 1297,-411 1297,-289 1419,-289 1419,-411"/>
<text text-anchor="middle" x="1358" y="-294.4" font-family="Times Roman,serif" font-size="14.00">[8,&#45;4]</text>
</g>
<!-- 799997 -->
<g id="node83" class="node"><title>799997</title>
<image xlink:href="./grid.8.-3.svg" width="122px" height="97.6px" preserveAspectRatio="xMinYMin meet" x="1297" y="-542.8"/>
<polygon fill="none" stroke="black" points="1419,-555 1297,-555 1297,-433 1419,-433 1419,-555"/>
<text text-anchor="middle" x="1358" y="-438.4" font-family="Times Roman,serif" font-size="14.00">[8,&#45;3]</text>
</g>
<!-- 799998 -->
<g id="node84" class="node"><title>799998</title>
<image xlink:href="./grid.8.-2.svg" width="122px" height="97.6px" preserveAspectRatio="xMinYMin meet" x="1297" y="-686.8"/>
<polygon fill="none" stroke="black" points="1419,-699 1297,-699 1297,-577 1419,-577 1419,-699"/>
<text text-anchor="middle" x="1358" y="-582.4" font-family="Times Roman,serif" font-size="14.00">[8,&#45;2]</text>
</g>
<!-- 799999 -->
<g id="node85" class="node"><title>799999</title>
<image xlink:href="./grid.8.-1.svg" width="122px" height="97.6px" preserveAspectRatio="xMinYMin meet" x="1297" y="-830.8"/>
<polygon fill="none" stroke="black" points="1419,-843 1297,-843 1297,-721 1419,-721 1419,-843"/>
<text text-anchor="middle" x="1358" y="-726.4" font-family="Times Roman,serif" font-size="14.00">[8,&#45;1]</text>
</g>
<!-- 800000 -->
<g id="node86" class="node"><title>800000</title>
<image xlink:href="./grid.8.0.svg" width="122px" height="97.6px" preserveAspectRatio="xMinYMin meet" x="1297" y="-974.8"/>
<polygon fill="none" stroke="black" points="1419,-987 1297,-987 1297,-865 1419,-865 1419,-987"/>
<text text-anchor="middle" x="1358" y="-870.4" font-family="Times Roman,serif" font-size="14.00">[8,0]</text>
</g>
<!-- 800001 -->
<g id="node87" class="node"><title>800001</title>
<image xlink:href="./grid.8.1.svg" width="122px" height="97.6px" preserveAspectRatio="xMinYMin meet" x="1297" y="-1118.8"/>
<polygon fill="none" stroke="black" points="1419,-1131 1297,-1131 1297,-1009 1419,-1009 1419,-1131"/>
<text text-anchor="middle" x="1358" y="-1014.4" font-family="Times Roman,serif" font-size="14.00">[8,1]</text>
</g>
<!-- 800002 -->
<g id="node88" class="node"><title>800002</title>
<image xlink:href="./grid.8.2.svg" width="122px" height="97.6px" preserveAspectRatio="xMinYMin meet" x="1297" y="-1262.8"/>
<polygon fill="none" stroke="black" points="1419,-1275 1297,-1275 1297,-1153 1419,-1153 1419,-1275"/>
<text text-anchor="middle" x="1358" y="-1158.4" font-family="Times Roman,serif" font-size="14.00">[8,2]</text>
</g>
</g>
</svg>
